<?xml version="1.0" standalone="no"?>
<!DOCTYPE svg PUBLIC "-//W3C//DTD SVG 20010904//EN"
 "http://www.w3.org/TR/2001/REC-SVG-20010904/DTD/svg10.dtd">
<svg version="1.0" xmlns="http://www.w3.org/2000/svg"
 width="750.000000pt" height="750.000000pt" viewBox="0 0 750.000000 750.000000"
 preserveAspectRatio="xMidYMid meet">
<metadata>
Created by potrace 1.11, written by Peter Selinger 2001-2013
</metadata>
<g transform="translate(0.000000,750.000000) scale(0.100000,-0.100000)"
fill="#000000" stroke="none">
<path d="M1210 6128 c0 -6 7 -18 15 -27 17 -18 82 -109 91 -128 3 -7 3 -20 0
-29 -5 -14 -22 -16 -117 -12 -67 2 -113 8 -117 15 -4 6 -58 16 -121 21 -63 6
-117 15 -120 21 -4 5 -48 13 -100 17 -56 4 -98 12 -106 20 -8 9 -37 14 -74 14
-70 0 -161 17 -161 31 0 5 -18 9 -40 9 -38 0 -39 -1 -28 -20 7 -12 24 -23 38
-27 14 -3 30 -10 35 -17 6 -6 24 -18 40 -26 17 -8 34 -21 38 -27 4 -7 13 -13
18 -13 6 0 22 -9 36 -20 14 -11 34 -20 44 -20 10 0 20 -9 24 -19 3 -12 19 -21
40 -25 21 -4 35 -13 35 -21 0 -8 9 -15 20 -15 11 0 23 -7 26 -15 3 -8 21 -19
39 -25 18 -6 36 -17 38 -25 3 -7 20 -16 37 -20 17 -4 34 -13 36 -20 3 -7 16
-16 30 -19 14 -4 24 -14 24 -24 0 -17 63 -52 94 -52 8 0 21 -6 28 -14 8 -7 28
-21 46 -30 18 -9 32 -21 32 -26 0 -5 16 -12 35 -16 22 -4 35 -12 35 -22 0 -8
8 -21 18 -28 15 -12 15 -15 2 -24 -8 -5 -32 -13 -53 -16 -21 -4 -41 -13 -44
-20 -2 -7 -31 -15 -64 -19 -37 -4 -59 -12 -59 -20 0 -8 -21 -14 -57 -18 -37
-4 -60 -11 -66 -22 -6 -12 -21 -16 -50 -15 -61 3 -64 2 -69 -18 -4 -14 -18
-20 -58 -25 -29 -4 -60 -13 -69 -20 -9 -8 -37 -18 -63 -21 -63 -9 -61 -26 2
-27 28 -1 55 -3 60 -4 6 -1 37 -3 71 -4 52 -1 62 -4 66 -21 3 -11 9 -20 14
-20 4 0 13 9 19 20 13 24 44 25 118 6 29 -8 122 -18 207 -21 142 -7 155 -9
155 -26 0 -11 -6 -19 -14 -19 -8 0 -18 -9 -21 -20 -3 -11 -14 -20 -23 -20 -10
0 -23 -9 -29 -19 -7 -11 -26 -22 -43 -26 -16 -4 -30 -13 -30 -21 0 -8 -8 -14
-18 -14 -11 0 -27 -9 -36 -19 -10 -11 -28 -22 -42 -25 -13 -4 -24 -13 -24 -21
0 -8 -9 -15 -20 -15 -11 0 -29 -9 -40 -20 -11 -11 -27 -20 -36 -20 -9 0 -18
-9 -21 -20 -5 -19 -26 -25 -79 -23 -21 1 -44 -31 -44 -62 0 -8 -8 -15 -19 -15
-10 0 -29 -8 -42 -18 -13 -10 -32 -21 -41 -25 -10 -3 -18 -13 -18 -21 0 -8
-14 -16 -34 -20 -19 -4 -37 -13 -40 -21 -3 -8 -12 -15 -20 -15 -9 0 -20 -9
-26 -20 -6 -11 -20 -20 -30 -20 -11 0 -29 -9 -40 -20 -11 -11 -26 -20 -34 -20
-8 0 -16 -7 -19 -15 -4 -8 -23 -21 -44 -30 -29 -12 -34 -18 -23 -25 17 -10 67
-3 95 15 11 7 53 14 93 17 48 4 77 11 85 21 17 21 139 29 165 11 17 -12 21
-10 32 12 14 26 24 29 103 38 27 3 58 13 70 21 12 9 43 15 73 15 52 0 114 16
114 30 0 4 33 10 74 12 51 3 80 10 91 21 15 16 35 18 163 21 l27 1 5 -440 c5
-409 6 -440 23 -443 11 -2 17 3 17 16 0 11 9 22 20 25 13 3 20 14 20 31 0 15
8 31 20 38 11 7 20 19 20 26 0 8 9 25 20 39 11 14 20 32 20 39 0 8 9 23 20 34
11 11 20 29 20 40 0 10 9 24 20 30 12 6 20 21 20 35 0 14 9 30 20 37 11 7 20
19 20 26 0 8 9 25 20 39 11 14 20 34 20 44 0 11 7 19 15 19 8 0 17 14 21 35 3
20 15 40 25 46 11 5 19 20 19 34 0 14 9 30 20 37 11 7 20 19 20 26 0 8 9 25
20 39 11 14 20 32 20 39 0 8 9 23 20 34 11 11 20 29 20 40 0 10 9 24 20 30 12
6 20 21 20 35 0 14 9 30 20 37 11 7 20 20 20 30 0 9 5 20 11 24 6 3 17 22 25
40 16 39 29 43 44 14 6 -11 15 -20 20 -20 6 0 28 -17 49 -37 22 -21 60 -55 84
-75 23 -20 55 -48 69 -61 14 -13 33 -27 42 -30 9 -4 16 -13 16 -21 0 -7 9 -16
20 -19 11 -3 20 -12 20 -21 0 -9 8 -16 20 -16 13 0 20 -7 20 -20 0 -13 7 -20
19 -20 10 0 21 -9 24 -20 3 -11 12 -20 20 -20 8 0 17 -9 20 -20 3 -11 12 -20
21 -20 9 0 16 -7 16 -15 0 -9 8 -19 17 -22 9 -4 63 -52 120 -108 93 -92 103
-105 103 -138 0 -24 -7 -44 -20 -57 -13 -13 -20 -33 -20 -58 0 -20 -8 -53 -19
-72 -10 -20 -21 -69 -25 -115 -4 -44 -13 -118 -20 -165 -14 -97 -13 -292 3
-395 6 -38 15 -110 21 -160 5 -49 16 -112 24 -140 8 -27 17 -81 19 -119 3 -37
9 -71 14 -75 6 -3 13 -26 16 -51 4 -25 9 -56 12 -70 4 -14 9 -43 12 -64 6 -42
29 -76 50 -76 7 0 13 -4 13 -10 0 -5 7 -10 16 -10 9 0 27 -9 41 -20 14 -11 34
-20 44 -20 11 0 19 -6 19 -14 0 -16 21 -26 55 -26 12 0 25 -6 28 -14 3 -7 27
-19 54 -25 26 -7 55 -18 63 -25 8 -8 33 -17 55 -21 22 -4 43 -11 46 -16 3 -5
23 -12 45 -16 21 -3 46 -12 54 -19 8 -7 44 -17 79 -23 34 -6 68 -14 74 -20 7
-5 28 -12 47 -15 117 -18 115 -17 96 -28 -9 -5 -126 -14 -259 -18 -401 -15
-484 -26 -319 -45 59 -7 86 -24 40 -26 -13 0 -32 -3 -43 -6 -33 -9 -2244 -15
-2320 -6 -69 8 -70 8 -70 38 0 22 -6 33 -22 40 -21 9 -23 17 -23 80 0 88 18
232 32 258 7 14 7 41 -1 91 -6 39 -13 91 -16 116 -4 37 -12 505 -26 1605 l-2
150 -8 -140 c-4 -77 -9 -638 -12 -1247 -5 -1083 -5 -1107 14 -1124 10 -9 19
-26 19 -36 0 -11 9 -22 19 -25 11 -3 21 -13 24 -24 3 -10 14 -19 25 -19 10 0
27 -9 37 -20 18 -20 31 -20 2694 -20 2665 0 2676 0 2689 20 7 11 23 20 37 20
15 0 28 7 32 17 4 10 15 24 25 31 10 7 18 19 18 26 0 7 9 21 19 30 19 17 19
42 14 1119 -3 606 -8 1174 -12 1262 l-8 160 -2 -145 c-1 -80 -6 -462 -11 -850
-5 -388 -11 -716 -14 -730 -2 -14 -10 -75 -16 -136 -11 -98 -10 -120 5 -185 9
-41 19 -120 22 -176 6 -99 5 -103 -15 -103 -11 0 -24 -4 -27 -10 -3 -5 -38
-10 -78 -10 -50 0 -68 -3 -60 -11 5 -5 38 -10 72 -11 44 -1 61 -5 61 -14 0
-10 -15 -14 -47 -15 -27 0 -57 -3 -68 -7 -29 -8 -994 -8 -1027 1 -16 4 -28 11
-28 17 0 11 21 17 90 25 30 4 56 8 58 10 5 4 -204 16 -441 24 -129 5 -240 12
-246 15 -21 14 0 26 44 26 24 0 63 8 87 18 24 11 65 22 91 25 27 4 58 14 70
22 12 8 31 15 42 15 11 0 37 9 58 20 20 11 45 20 54 20 10 0 40 11 67 25 27
14 56 25 63 25 8 0 21 7 29 15 9 8 26 15 40 15 25 0 103 45 117 67 4 7 16 13
27 13 29 0 50 11 50 26 0 8 8 14 19 14 16 0 19 10 23 76 3 42 10 79 15 83 6 3
16 39 22 80 6 40 16 82 21 92 6 10 14 63 19 119 4 56 13 105 19 109 19 12 34
411 22 606 -5 88 -12 131 -23 149 -10 14 -17 43 -17 64 0 58 -11 102 -25 102
-7 0 -15 21 -18 52 -6 51 -20 78 -30 61 -3 -5 -2 -27 3 -49 5 -21 10 -57 10
-80 0 -22 6 -46 13 -53 9 -9 11 -66 10 -228 -2 -180 -5 -217 -18 -227 -10 -7
-18 -36 -22 -81 -4 -44 -12 -74 -21 -81 -8 -6 -17 -34 -20 -62 -3 -35 -9 -52
-18 -52 -8 0 -16 -16 -20 -41 -4 -22 -13 -43 -20 -46 -7 -2 -16 -18 -19 -35
-4 -16 -16 -39 -26 -49 -10 -10 -19 -28 -19 -39 0 -10 -9 -24 -20 -30 -11 -6
-20 -17 -20 -25 0 -8 -6 -18 -14 -22 -7 -4 -21 -23 -30 -40 -9 -18 -20 -33
-25 -33 -5 0 -11 -9 -14 -20 -3 -11 -12 -20 -21 -20 -9 0 -16 -8 -16 -20 0
-13 -7 -20 -20 -20 -13 0 -20 -7 -20 -20 0 -13 -7 -20 -19 -20 -10 0 -21 -9
-24 -20 -3 -11 -12 -20 -21 -20 -9 0 -16 -7 -16 -15 0 -9 -10 -19 -23 -24 -13
-5 -28 -16 -35 -24 -7 -8 -24 -18 -37 -21 -14 -4 -25 -13 -25 -21 0 -8 -8 -15
-17 -15 -10 0 -29 -9 -43 -20 -14 -11 -32 -20 -41 -20 -9 0 -22 -7 -29 -15 -7
-8 -30 -20 -51 -25 -21 -6 -45 -17 -53 -25 -8 -8 -27 -15 -43 -15 -15 0 -41
-8 -58 -18 -17 -11 -60 -21 -99 -25 -37 -4 -75 -12 -84 -19 -10 -9 -66 -14
-187 -16 -152 -3 -180 -1 -240 17 -37 12 -81 21 -99 21 -17 1 -49 9 -71 20
-22 11 -52 19 -66 20 -15 0 -38 9 -52 20 -14 11 -37 20 -51 20 -15 0 -29 7
-32 15 -3 8 -24 20 -45 25 -21 6 -39 15 -39 20 0 5 -15 17 -32 25 -56 26 -81
43 -90 59 -5 9 -13 16 -18 16 -23 0 -215 188 -225 221 -4 10 -13 19 -21 19 -8
0 -14 9 -14 20 0 11 -7 20 -15 20 -8 0 -21 15 -29 34 -8 18 -19 37 -25 40 -6
4 -11 14 -11 22 0 8 -9 23 -20 34 -11 11 -20 31 -20 45 0 15 -6 25 -14 25 -16
0 -26 21 -26 53 0 12 -9 33 -20 47 -11 14 -20 40 -20 58 0 19 -8 46 -19 60
-12 18 -20 52 -23 97 -3 39 -13 84 -22 100 -23 44 -24 332 0 349 11 9 17 36
21 96 5 67 10 88 25 98 10 7 18 20 18 28 0 8 9 14 20 14 12 0 20 -7 20 -16 0
-9 9 -18 19 -21 11 -3 21 -13 24 -24 3 -10 12 -19 21 -19 9 0 16 -7 16 -15 0
-9 7 -18 16 -22 9 -3 31 -20 48 -37 17 -17 55 -51 84 -74 l52 -44 0 -137 c0
-117 3 -142 20 -176 11 -22 20 -59 20 -85 0 -29 7 -54 20 -70 11 -14 20 -40
20 -58 0 -25 5 -35 20 -39 13 -3 20 -14 20 -28 0 -34 10 -55 26 -55 8 0 14 -9
14 -20 0 -11 4 -20 10 -20 5 0 17 -15 26 -32 29 -55 196 -208 228 -208 9 0 16
-6 16 -14 0 -8 15 -20 34 -26 19 -6 40 -18 46 -26 7 -7 23 -14 36 -14 12 0 29
-7 38 -15 8 -8 39 -20 68 -25 29 -6 74 -17 101 -26 68 -23 368 -16 412 9 17 9
44 17 60 17 17 0 45 9 63 20 18 11 39 20 46 20 7 0 25 9 39 20 14 11 31 20 39
20 7 0 21 9 31 20 9 11 26 20 38 20 12 0 23 8 26 20 3 11 14 20 24 20 12 0 19
7 19 20 0 13 7 20 19 20 10 0 21 9 24 20 3 11 12 20 21 20 9 0 16 8 16 20 0
13 7 20 20 20 13 0 20 7 20 20 0 11 7 20 15 20 9 0 18 13 22 31 3 17 14 36 24
42 11 7 19 19 19 28 0 9 8 27 19 40 10 13 22 39 25 56 4 18 13 36 20 40 7 5
16 32 19 62 4 30 12 58 19 62 21 13 24 378 4 421 -9 18 -20 55 -25 82 -5 27
-13 51 -19 55 -6 3 -13 23 -17 43 -4 20 -13 39 -20 42 -7 2 -16 18 -20 35 -4
17 -15 36 -26 41 -10 6 -19 16 -19 22 0 31 -167 205 -212 220 -16 6 -28 16
-28 24 0 8 -8 14 -18 14 -9 0 -23 9 -30 20 -7 12 -23 20 -41 20 -20 0 -30 6
-34 20 -4 15 -14 20 -40 20 -19 0 -45 9 -60 20 -18 14 -40 20 -79 20 -30 0
-66 7 -83 17 -19 10 -63 18 -123 21 -76 4 -103 1 -150 -16 -31 -11 -81 -22
-111 -25 -34 -3 -59 -10 -66 -21 -8 -10 -26 -16 -49 -16 -24 0 -36 -5 -36 -14
0 -16 -21 -26 -55 -26 -14 0 -25 -7 -28 -20 -3 -12 -14 -20 -26 -20 -12 0 -29
-9 -38 -20 -10 -11 -25 -20 -35 -20 -11 0 -18 -8 -18 -20 0 -13 -7 -20 -19
-20 -10 0 -21 -9 -24 -20 -3 -11 -12 -20 -20 -20 -8 0 -17 -9 -20 -20 -3 -11
-12 -20 -20 -20 -8 0 -17 -9 -20 -20 -3 -11 -12 -20 -21 -20 -9 0 -16 -8 -16
-19 0 -10 -9 -21 -20 -24 -12 -3 -20 -14 -20 -26 0 -12 -9 -30 -20 -41 -11
-11 -20 -26 -20 -34 0 -7 -8 -24 -19 -37 -10 -13 -21 -41 -25 -61 -4 -23 -13
-38 -21 -38 -8 0 -15 -9 -15 -20 0 -13 -7 -20 -20 -20 -15 0 -20 7 -20 25 0
14 -9 34 -20 45 -11 11 -20 26 -20 34 0 7 -9 25 -20 39 -11 14 -20 31 -20 39
0 7 -9 21 -20 31 -11 9 -20 28 -20 42 0 15 -6 25 -15 25 -8 0 -19 16 -25 40
-6 24 -17 40 -25 40 -11 0 -15 12 -15 45 0 25 5 45 10 45 6 0 10 7 10 16 0 13
-3 14 -15 4 -17 -15 -33 -6 -45 26 -5 13 -16 24 -25 24 -8 0 -15 8 -15 19 0
10 -9 30 -20 44 -11 14 -20 31 -20 39 0 7 -9 21 -20 31 -11 9 -20 26 -20 37 0
10 -9 24 -20 30 -11 6 -20 19 -20 30 0 28 -11 50 -25 50 -7 0 -16 16 -19 36
-4 19 -14 38 -22 41 -7 3 -14 13 -14 23 0 9 -9 29 -20 43 -11 14 -20 30 -20
36 0 7 -9 21 -20 33 -11 12 -20 30 -20 41 0 10 -9 21 -20 24 -16 4 -20 14 -20
44 0 36 2 39 35 45 19 3 39 12 43 19 4 6 30 15 59 18 29 3 62 12 75 20 13 8
49 18 81 22 33 4 60 12 63 20 3 7 30 15 64 19 33 4 60 12 63 20 3 7 29 16 61
20 54 6 136 40 136 56 0 4 -16 11 -36 15 -21 3 -46 13 -58 20 -12 8 -40 17
-63 21 -23 3 -44 12 -47 19 -3 8 -25 17 -50 20 -25 4 -50 13 -56 20 -6 8 -29
16 -51 20 -22 4 -43 13 -46 21 -3 7 -20 16 -39 20 -19 3 -36 10 -39 14 -3 5
-30 14 -60 21 -46 10 -58 18 -70 42 -10 21 -12 34 -5 41 5 5 10 25 10 42 0 18
7 40 16 49 9 8 18 35 21 58 3 23 12 50 20 59 9 9 18 39 21 65 2 26 11 52 18
56 8 4 14 24 14 42 0 35 0 35 -45 35 -39 0 -45 -3 -45 -20 0 -11 -7 -23 -15
-26 -8 -4 -15 -14 -15 -25 0 -23 -21 -69 -31 -69 -5 0 -12 -19 -15 -41 -4 -23
-15 -49 -25 -58 -11 -9 -19 -29 -19 -47 0 -17 -8 -42 -19 -55 -10 -13 -21 -40
-25 -60 -4 -21 -13 -42 -21 -49 -9 -7 -15 -30 -15 -55 l0 -42 50 -7 c29 -4 53
-13 56 -21 3 -7 23 -16 44 -20 21 -4 44 -13 50 -21 7 -7 34 -17 61 -20 27 -4
49 -12 49 -18 0 -7 14 -16 32 -21 45 -14 45 -31 1 -45 -21 -7 -47 -18 -58 -25
-11 -6 -45 -15 -74 -18 -34 -4 -58 -13 -63 -22 -6 -9 -23 -15 -45 -15 -20 0
-55 -8 -77 -19 -23 -10 -49 -21 -60 -25 -14 -5 -17 -12 -11 -34 4 -15 13 -31
21 -35 8 -4 14 -16 14 -26 0 -10 9 -30 20 -44 11 -14 20 -32 20 -40 0 -7 9
-22 20 -32 11 -10 20 -26 20 -37 0 -10 9 -27 20 -38 11 -11 20 -30 20 -43 0
-12 9 -28 20 -35 11 -7 20 -23 20 -37 0 -14 8 -29 20 -35 13 -7 20 -21 20 -40
0 -19 7 -33 20 -40 13 -7 20 -21 20 -41 0 -22 6 -32 19 -36 13 -3 21 -17 25
-44 4 -25 12 -39 21 -39 9 0 15 -10 15 -25 0 -14 9 -34 20 -45 26 -26 26 -50
0 -50 -11 0 -20 7 -20 15 0 9 -8 18 -17 22 -10 3 -25 13 -34 22 -9 9 -31 27
-49 41 -18 14 -40 32 -49 41 -9 9 -24 19 -33 22 -10 4 -18 13 -18 21 0 7 -9
16 -20 19 -11 3 -20 12 -20 21 0 9 -8 16 -19 16 -10 0 -21 9 -24 20 -3 11 -12
20 -21 20 -9 0 -16 7 -16 15 0 9 -7 18 -15 22 -9 3 -33 22 -55 42 -21 20 -50
45 -65 56 -15 11 -37 29 -50 41 -13 12 -30 24 -39 27 -9 4 -16 13 -16 22 0 8
-8 15 -19 15 -10 0 -21 9 -24 20 -3 11 -12 20 -20 20 -8 0 -17 9 -20 21 -4 16
-12 20 -39 17 -22 -2 -34 -9 -36 -21 -2 -11 -12 -27 -23 -38 -10 -10 -19 -28
-19 -39 0 -11 -6 -20 -14 -20 -15 0 -26 -21 -26 -52 0 -11 -8 -22 -20 -25 -11
-3 -20 -12 -20 -20 0 -8 -9 -26 -20 -40 -11 -14 -20 -34 -20 -44 0 -11 -6 -19
-14 -19 -15 0 -26 -21 -26 -52 0 -11 -8 -22 -20 -25 -11 -3 -20 -12 -20 -20 0
-8 -9 -26 -20 -40 -11 -14 -20 -34 -20 -44 0 -11 -6 -19 -14 -19 -15 0 -26
-21 -26 -50 0 -23 -18 -36 -32 -22 -5 5 -14 70 -19 143 -5 74 -15 186 -22 249
l-13 115 -34 -3 c-19 -1 -37 -8 -41 -14 -4 -6 -42 -14 -85 -18 -81 -8 -114
-16 -114 -30 0 -4 -33 -10 -72 -12 -40 -3 -86 -13 -103 -22 -16 -9 -51 -16
-76 -16 -50 0 -109 -17 -109 -31 0 -5 -18 -9 -40 -9 -33 0 -40 3 -40 20 0 13
7 20 19 20 10 0 21 9 24 20 3 12 14 20 26 20 12 0 30 9 41 20 11 11 26 20 34
20 8 0 16 7 19 15 4 8 22 21 42 29 19 8 35 20 35 25 0 6 9 11 19 11 10 0 21 7
24 15 4 8 22 21 42 29 19 8 35 20 35 25 0 6 9 11 19 11 10 0 21 7 24 15 4 8
22 21 42 29 19 8 35 20 35 25 0 6 9 11 20 11 13 0 20 7 20 19 0 28 -100 49
-268 57 -144 7 -180 15 -152 34 8 5 23 10 33 10 9 0 26 9 37 20 11 11 33 20
48 20 15 0 45 9 67 20 22 11 49 20 60 20 11 0 38 9 58 19 21 11 56 22 78 26
41 7 51 21 22 32 -10 4 -29 15 -42 25 -13 10 -32 18 -41 18 -10 0 -20 6 -23
14 -3 8 -20 17 -37 21 -17 4 -34 13 -37 21 -3 8 -11 14 -18 14 -6 0 -22 9 -35
20 -13 11 -34 23 -46 26 -12 3 -25 12 -28 19 -3 8 -21 17 -40 21 -21 3 -36 12
-36 20 0 8 -7 14 -15 14 -14 0 -77 37 -106 63 -10 8 -31 18 -48 22 -17 4 -31
13 -31 20 0 8 -9 19 -20 25 -11 6 -20 17 -20 25 0 20 93 21 112 2 9 -9 48 -16
107 -19 62 -4 96 -10 102 -19 5 -9 41 -16 104 -20 60 -5 105 -13 120 -23 23
-15 125 -23 125 -10 0 4 -16 21 -35 40 -19 18 -35 36 -35 39 0 4 -13 20 -30
37 -16 16 -30 35 -30 43 0 7 -7 15 -15 19 -19 7 -19 55 0 62 22 9 113 -16 119
-32 3 -8 17 -14 31 -14 14 0 33 -9 42 -20 21 -24 89 -29 80 -6 -3 8 -9 30 -12
50 -4 19 -13 37 -20 40 -7 2 -16 23 -20 45 l-7 41 -63 0 c-35 0 -67 -4 -70
-10 -7 -12 -85 -10 -85 2 0 4 -52 8 -115 8 -81 0 -115 -3 -115 -12z m3030
-2128 c0 -15 -7 -20 -25 -20 -14 0 -33 -8 -43 -18 -10 -10 -26 -21 -35 -25 -9
-3 -17 -12 -17 -19 0 -7 -9 -19 -19 -25 -11 -7 -21 -22 -23 -35 -2 -13 -11
-24 -20 -26 -29 -6 -24 59 7 88 14 13 25 28 25 34 0 6 14 17 31 25 17 7 33 20
36 27 3 9 20 14 44 14 32 0 39 -3 39 -20z m206 -155 c4 -8 3 -26 0 -40 -12
-49 -86 -22 -86 31 0 21 4 24 40 24 27 0 43 -5 46 -15z m-86 -85 c0 -13 7 -20
20 -20 17 0 20 -7 20 -40 0 -28 -4 -40 -14 -40 -8 0 -18 -9 -21 -20 -3 -11
-13 -20 -20 -20 -8 0 -19 -9 -25 -20 -9 -16 -21 -20 -65 -20 -39 0 -55 4 -55
13 0 8 -7 28 -16 45 -19 39 -14 49 34 62 20 5 53 25 72 44 40 39 70 46 70 16z
m546 -328 c-12 -11 -18 7 -10 30 l8 23 4 -23 c2 -13 1 -26 -2 -30z m-26 -37
c0 -7 -7 -15 -15 -19 -15 -5 -22 24 -9 37 9 9 24 -2 24 -18z m-40 -54 c0 -11
-8 -26 -18 -33 -10 -7 -21 -21 -25 -30 -3 -10 -13 -18 -21 -18 -7 0 -16 -9
-19 -21 -4 -13 -12 -19 -23 -17 -25 4 -23 21 4 33 12 5 22 18 22 27 0 11 7 18
18 18 9 0 23 13 30 30 15 34 32 40 32 11z m320 -1141 c0 -5 -4 -10 -10 -10 -5
0 -10 5 -10 10 0 6 5 10 10 10 6 0 10 -4 10 -10z"/>
<path d="M1960 6134 c0 -22 110 -144 130 -144 6 0 10 24 10 53 0 28 3 62 6 75
6 21 4 22 -70 22 -42 0 -76 -3 -76 -6z"/>
<path d="M2340 6085 c0 -37 5 -61 17 -75 20 -23 33 -26 33 -7 0 6 18 28 40 47
22 19 40 40 40 46 0 7 9 14 20 17 11 3 20 10 20 16 0 7 -30 11 -85 11 l-85 0
0 -55z"/>
<path d="M5822 5930 c-36 -15 -16 -30 38 -30 41 0 71 13 59 25 -11 10 -77 13
-97 5z"/>
<path d="M5063 5913 c9 -2 23 -2 30 0 6 3 -1 5 -18 5 -16 0 -22 -2 -12 -5z"/>
<path d="M4887 5893 c-4 -3 -7 -58 -7 -120 l0 -114 53 5 c28 3 145 8 260 12
114 3 207 10 207 15 0 5 7 9 15 9 24 0 17 20 -11 30 -14 6 -98 10 -187 10
-201 0 -279 18 -213 48 19 8 23 16 19 34 -8 30 -21 38 -64 38 -28 0 -38 5 -42
20 -5 20 -18 26 -30 13z"/>
<path d="M6048 5881 c-9 -15 -23 -21 -49 -21 -20 0 -47 -8 -60 -19 -13 -10
-46 -21 -73 -24 -28 -3 -55 -11 -60 -19 -6 -8 -28 -18 -48 -22 -21 -4 -38 -11
-38 -16 0 -5 -22 -12 -50 -16 -58 -8 -84 -23 -75 -46 10 -24 49 -28 291 -28
258 0 232 -15 230 130 l-1 95 -27 3 c-19 2 -31 -3 -40 -17z m29 -91 c5 -25
-13 -43 -35 -36 -17 6 -18 10 -8 31 12 27 39 30 43 5z"/>
<path d="M5605 5350 c-3 -5 -14 -10 -24 -10 -19 0 -61 -39 -61 -58 0 -6 -9
-16 -20 -22 -16 -9 -20 -21 -20 -61 0 -42 3 -52 20 -56 11 -3 20 -14 20 -23 0
-10 9 -22 20 -25 11 -3 20 -13 20 -21 0 -10 13 -15 43 -16 96 -4 110 1 155 49
38 41 42 50 42 96 0 33 -6 57 -17 69 -9 10 -21 28 -27 39 -18 35 -135 65 -151
39z"/>
</g>
</svg>
